<?xml version="1.0" encoding="UTF-8"?>
<svg width="65.2686659px" height="19.6568478px" viewBox="0 0 65.2686659 19.6568478" version="1.1" xmlns="http://www.w3.org/2000/svg" xmlns:xlink="http://www.w3.org/1999/xlink">
    <title>logo</title>
    <g id="页面-1" stroke="none" stroke-width="1" fill="none" fill-rule="evenodd">
        <g id="logo" transform="translate(-0.464850, -0.431388)">
            <g id="编组" transform="translate(1.000000, 0.000000)">
                <g transform="translate(0.000000, 1.000000)">
                    <g id="矩形" fill="#FEFFFF" fill-opacity="0" fill-rule="nonzero">
                        <rect x="0" y="0" width="17.9303898" height="18.4135714"></rect>
                    </g>
                    <g id="形状" transform="translate(0.053085, 0.318508)" stroke="#47A7A7" stroke-width="1.17647059">
                        <g id="编组">
                            <path d="M4.88378766,11.0946915 C4.88378766,7.9892396 8.81205165,4.72453372 8.81205165,4.72453372 C8.81205165,4.72453372 12.7403156,7.96269727 12.7403156,11.0946915 C12.7403156,13.2711621 10.9885222,15.0229555 8.81205165,15.0229555 C6.63558106,15.0229555 4.88378766,13.2711621 4.88378766,11.0946915 Z M8.81205165,4.72453372 L4.08751793,0 C2.04375897,2.6276901 0,6.07819225 0,9.36944046 C0,14.2266858 3.95480631,18.1814921 8.81205165,18.1814921 M8.81205165,18.1549498 C13.669297,18.1549498 17.6241033,14.2001435 17.6241033,9.34289813 C17.6241033,6.07819225 15.5803443,2.60114778 13.5365854,0 L8.81205165,4.72453372" id="形状"></path>
                        </g>
                    </g>
                </g>
                <g transform="translate(18.868810, 0.000000)" fill="#47A7A7" fill-rule="nonzero" id="形状">
                    <g transform="translate(1.470588, 3.825643)">
                        <path d="M3.72352941,6.27352941 L1.72352941,8.13529412 L1.72352941,12.6147059 L-7.83686841e-16,12.6147059 L-7.83686841e-16,0 L1.72352941,0 L1.72352941,6.13529412 L7.85882353,0 L10.2735294,0 L4.96470588,5.1 L10.4088235,12.6147059 L8.13529412,12.6147059 L3.72352941,6.27352941 Z M12.9617647,6.20294118 L12.9617647,6.20294118 L11.5117647,6.20294118 C11.5588235,4.13627451 12.822549,3.10294118 15.3029412,3.10294118 L15.3029412,3.10294118 C17.5088235,3.19313725 18.6352941,4.06568627 18.6823529,5.72058824 L18.6823529,5.72058824 L18.6823529,11.0294118 C18.6823529,11.3960784 18.8656863,11.5794118 19.2323529,11.5794118 L19.2323529,11.5794118 C19.2794118,11.5794118 19.3490196,11.5794118 19.4411765,11.5794118 L19.4411765,11.5794118 C19.5784314,11.5343137 19.6931373,11.5117647 19.7852941,11.5117647 L19.7852941,11.5117647 L19.7852941,12.6147059 C19.6931373,12.6147059 19.5784314,12.6147059 19.4411765,12.6147059 L19.4411765,12.6147059 C19.2117647,12.6598039 19.027451,12.6823529 18.8882353,12.6823529 L18.8882353,12.6823529 C17.7862745,12.6823529 17.2578431,12.2460784 17.3029412,11.3735294 L17.3029412,11.3735294 C16.3833333,12.2931373 15.2578431,12.7529412 13.9264706,12.7529412 L13.9264706,12.7529412 C12.0872549,12.6607843 11.1215686,11.8107843 11.0294118,10.2029412 L11.0294118,10.2029412 C11.0764706,8.54803922 12.0186275,7.58235294 13.8558824,7.30588235 L13.8558824,7.30588235 L16.4058824,7.03235294 C16.9588235,6.94019608 17.2352941,6.57254902 17.2352941,5.92941176 L17.2352941,5.92941176 C17.2352941,4.91764706 16.5,4.41176471 15.0294118,4.41176471 L15.0294118,4.41176471 C13.7411765,4.41176471 13.0519608,5.00882353 12.9617647,6.20294118 Z M17.1647059,9.44411765 L17.1647059,9.44411765 L17.1647059,7.92647059 C16.7980392,8.15588235 15.9480392,8.3627451 14.6147059,8.54705882 L14.6147059,8.54705882 C13.3284314,8.63921569 12.6852941,9.12156863 12.6852941,9.99411765 L12.6852941,9.99411765 C12.6852941,11.0509804 13.2137255,11.5794118 14.2705882,11.5794118 L14.2705882,11.5794118 C16.0627451,11.4421569 17.027451,10.7303922 17.1647059,9.44411765 Z M23.0941176,7.23823529 L23.0941176,7.23823529 L23.0941176,12.6147059 L21.5088235,12.6147059 L21.5088235,3.37647059 L23.0235294,3.37647059 L23.0235294,4.96176471 C23.7137255,3.72254902 24.5872549,3.10294118 25.6441176,3.10294118 L25.6441176,3.10294118 C25.7362745,3.10294118 25.8284314,3.1254902 25.9205882,3.17058824 L25.9205882,3.17058824 C25.9656863,3.17058824 26.0117647,3.17058824 26.0588235,3.17058824 L26.0588235,3.17058824 L26.0588235,4.82647059 L25.4382353,4.82647059 C23.9676471,4.91666667 23.1862745,5.72058824 23.0941176,7.23823529 Z M33.4352941,9.72058824 L33.4352941,9.72058824 L34.95,9.72058824 C34.7656863,10.777451 34.2147059,11.627451 33.2970588,12.2705882 L33.2970588,12.2705882 C32.7911765,12.5921569 31.9637255,12.7529412 30.8147059,12.7529412 L30.8147059,12.7529412 C28.195098,12.6607843 26.8166667,11.1666667 26.6794118,8.27058824 L26.6794118,8.27058824 C26.7715686,4.91568627 28.2421569,3.19313725 31.0911765,3.10294118 L31.0911765,3.10294118 C33.7107843,3.14803922 35.0431373,4.9627451 35.0882353,8.54705882 L35.0882353,8.54705882 L28.3323529,8.54705882 C28.3323529,10.5686275 29.2284314,11.5794118 31.0205882,11.5794118 L31.0205882,11.5794118 C32.3068627,11.4892157 33.1117647,10.8696078 33.4352941,9.72058824 Z M28.3323529,7.30588235 L28.3323529,7.30588235 L33.5029412,7.30588235 C33.3656863,5.46862745 32.4921569,4.55 30.8823529,4.55 L30.8823529,4.55 C29.3666667,4.6872549 28.5166667,5.60588235 28.3323529,7.30588235 Z M44.3941176,6.34117647 L44.3941176,6.34117647 L44.3941176,12.6147059 L42.8764706,12.6147059 L42.8764706,6.96176471 C42.9686275,5.26176471 42.3029412,4.45784314 40.8794118,4.55 L40.8794118,4.55 C39.3166667,4.64215686 38.5117647,5.65294118 38.4647059,7.58235294 L38.4647059,7.58235294 L38.4647059,12.6147059 L36.8794118,12.6147059 L36.8794118,3.37647059 L38.3970588,3.37647059 L38.3970588,4.68823529 C39.1323529,3.63137255 40.0745098,3.10294118 41.2235294,3.10294118 L41.2235294,3.10294118 C43.2921569,3.14803922 44.3490196,4.22745098 44.3941176,6.34117647 Z"></path>
                    </g>
                </g>
            </g>
        </g>
    </g>
</svg>